<?xml version="1.0" encoding="UTF-8"?>
<!DOCTYPE svg PUBLIC "-//W3C//DTD SVG 1.1//EN" "http://www.w3.org/Graphics/SVG/1.1/DTD/svg11.dtd">
<!-- Creator: CorelDRAW 2019 (64-Bit) -->
<svg xmlns="http://www.w3.org/2000/svg" xml:space="preserve" width="152.4mm" height="118.533mm" version="1.1" style="shape-rendering:geometricPrecision; text-rendering:geometricPrecision; image-rendering:optimizeQuality; fill-rule:evenodd; clip-rule:evenodd"
viewBox="0 0 15239.98 11853.32"
 xmlns:xlink="http://www.w3.org/1999/xlink"
 xmlns:xodm="http://www.corel.com/coreldraw/odm/2003">
 <defs>
  <style type="text/css">
   <![CDATA[
    .str0 {stroke:black;stroke-width:35.28;stroke-miterlimit:22.9256}
    .fil0 {fill:black;fill-rule:nonzero}
   ]]>
  </style>
 </defs>
 <g id="Capa_x0020_1">
  <metadata id="CorelCorpID_0Corel-Layer"/>
  <path class="fil0" d="M7624.9 3608.88c-260.29,128.7 -514.7,272.78 -784.81,375.75 -70.72,26.93 -201.58,-57.93 -284.92,-118.74 -232.47,-169.69 -475.34,-193.79 -701.23,-26.01 -276.98,205.72 -558.57,418.45 -783.68,675.8 -138.66,158.52 -181.44,403.95 -256.48,614.23 -73.88,206.9 89.32,315.96 220.27,395.19 540.67,327.35 1116.44,308.13 1705.05,140.94 241.34,-68.55 493.21,-99.46 736.48,-162.13 119.48,-30.76 230.29,-86.49 342.04,-148.02 216.1,-163.71 414.68,-350.47 622.05,-525.81 368.18,-348.11 434.26,-786.6 483.09,-1239.71 8.66,-80.22 -84.14,-209.79 -164.39,-253.24 -173.17,-93.72 -363.98,-165.72 -555.91,-211.39 -336.61,-80.04 -683.06,-119.94 -1017.61,-206.67 -99.59,-25.78 -221.81,-137.18 -250.67,-234.08 -166.04,-556.99 -512.43,-893.03 -1094.67,-970.78 -200.87,-26.83 -270.26,-137.61 -268.53,-337.82 167.81,588.21 -429.43,-776.48 -731.88,-545.94 -410.39,1545.25 -772.17,2925.44 -1094.08,4488.75 -604.2,1422.91 788.51,725.78 682.46,1417.97 112.39,-936.2 166.68,-1879.3 270.8,-2816.65 99.85,-898.96 231,-1794.48 385.48,-2692.74 8.93,139.74 28.95,279.92 24.22,419.23 -7.85,231.54 94.26,367.66 314.74,429.42 89.56,25.06 173.67,69.54 192.84,125.39 31.35,198.16 64.5,396.08 93.03,594.63 8.74,60.88 11.87,124.31 5.27,185.27 -25.53,236.16 89.94,465.85 300.72,528.3 217.4,64.43 357.01,-56.75 449.28,-245.42 23.83,-48.8 52.81,-95.07 47.01,-84.66 395.31,135.77 738.13,253.5 1080.95,371.26 11.01,19.26 22.04,38.45 33.08,57.68zm-1425.11 1689.97l0 0c-84.13,20.65 -171.28,26.69 -257.16,15.14 -143.56,-19.25 -277.62,-33.77 -404.32,-72.42 -247.34,-75.42 -287.92,-208.89 -112.49,-398.13 170.21,-183.58 372.83,-336.82 558.33,-506.47 134.33,-122.94 261.04,-120.32 390.27,6.04 138.77,135.74 296.93,180.63 495.52,146.87 413.04,-70.22 734.94,-306.8 1064.79,-536.37 99.1,-69.03 190.18,-200.06 340.41,-47.1 138.39,140.88 91.85,280.39 -7.5,374.92 -252.54,240.27 -497.45,528.05 -804.33,662.32 -399.26,174.71 -841.28,251.65 -1263.52,355.2z"/>
  <path class="fil0 str0" d="M3454.76 11305.6c29.44,-790.62 64.93,-1521.68 82.38,-2253.17 58.57,-2455.56 107.16,-4911.36 170.48,-7366.79 6.76,-262.21 -80.19,-337.76 -329.42,-328.38 -414.77,15.6 -830.64,-0.88 -1245.89,5.77 -705.68,11.31 -1085.43,327.87 -1202.39,1020.17 -43.91,259.93 -50.25,527.31 -58.49,791.78 -4.63,148.37 -56.33,215.4 -206.04,190.43 -125.37,-20.91 -310.02,53.06 -306.37,-181.89 8.34,-538.62 -9.31,-1079.6 36.32,-1615.13 46.23,-542.74 340.13,-851.04 888.67,-875.07 748.24,-32.78 1500.03,26.61 2250.11,21.37 1456.94,-10.2 2913.77,-37.71 4370.62,-59.01 52.64,-0.76 105.58,-9.2 157.64,-18.32 327.41,-57.35 462.43,81.09 404.21,415.78 -48.3,277.7 -287.66,500.67 -653.49,524.26 -421.48,27.2 -847.21,15.54 -1269.69,-6.34 -449.36,-23.26 -897.52,-73.94 -1345.27,-121.42 -187.98,-19.93 -267.33,28.28 -271.59,237.46 -29.84,1466.43 -68.3,2932.71 -110.45,4398.85 -46.21,1607.33 -101.36,3214.41 -146.56,4821.77 -4.79,170.25 -52.48,256.17 -234.33,272.95 -313.37,28.91 -624.84,78.41 -980.45,124.93z"/>
  <g id="_1156748496">
   <path class="fil0 str0" d="M10238.05 3515.66c-435.83,25.11 -691.87,287.47 -900.56,628.72 62.43,-293.21 233.3,-492.64 488.78,-623.17 52.21,-26.66 110.81,-48.2 166.65,-58.34 309.5,-56.18 435,-226.55 515.68,-510.55 -449.33,9.9 -867.09,215.89 -1151.78,607.81 -15.06,-13.76 4.61,-77.64 19.04,-112.08 36.12,-58.86 63.82,-125.49 109.78,-175.26 243.48,-263.65 563.31,-373.61 906.12,-421.51 156.24,-21.83 291.95,-58.07 387.22,-181.83 33.62,-43.66 94.94,-107.82 141,-138.05 348.29,-228.65 443.81,-576.89 468.5,-983.67 26.74,-440.57 106.86,-877.91 173.59,-1393.86 377.29,475.62 715.29,901.71 1077.29,1358.05 201.13,-469.64 385.18,-899.42 596.23,-1392.24 197.55,462.08 362.63,846.86 529.52,1239.98 31.73,74.74 60.09,150.83 88.31,226.97 80.58,217.43 195.03,388.43 439.21,478.11 247.88,91.06 369.95,291.86 348.42,578.2 -28.25,375.6 -27.11,753.31 -45.17,1129.8 -17.5,364.63 -38.65,376.88 -410.75,293.31 -23.54,-233.73 -26.94,-471.24 -74.43,-699.56 -120.67,-580.07 -517.07,-942.37 -1103.11,-1034.03 -700.48,-109.56 -1316.05,37.02 -1749.33,638.77 -433.9,602.61 -314.84,1537.75 225.83,2052.21 501.99,477.63 1140.34,731.78 1718.8,1084.77 344.88,210.47 690.24,434.36 988.59,704 711.61,643.13 725.55,1646.64 418.08,2445.76 -301.18,782.73 -910.48,1240.19 -1679.89,1496.62 -863.06,287.66 -1538.13,267.54 -2393.39,-47.41 -368.51,-135.71 262.67,-550.92 730.26,-416.98 706.62,202.44 1398,183.7 2008.17,-274.2 746.93,-560.5 826.04,-1707.13 136.32,-2337.53 -354.56,-324.07 -791.52,-559.93 -1199.21,-823.3 -377.96,-244.16 -782.17,-450.03 -1147.27,-711.26 -834.24,-596.94 -1079.3,-1421.74 -862.44,-2404.01 12.72,-57.58 23.66,-114.1 37.46,-171.45 1.61,-6.7 3.57,-14.86 -1.52,-52.79z"/>
   <path class="fil0 str0" d="M13890.03 3632.44c-80.22,-41.37 -130.98,-62.89 -176.92,-92.02 -221.95,-140.75 -445.55,-279.3 -661.79,-428.43 -58.02,-40.01 -92.29,-114.47 -137.47,-173.1 67.6,-32.95 133.94,-91.07 203.03,-94.54 316.59,-15.91 697.31,278.99 771.42,588.05 12.36,51.6 1.73,108.72 1.73,200.04z"/>
   <path class="fil0 str0" d="M10680.48 10744.16c-211.66,-64.28 -276,-67.04 -441.57,-213.77 -170.93,-151.58 -422.48,-437.44 -475.27,-662.33 -18.53,-78.52 -31.01,-158.68 -38.56,-238.61 -1.86,-19.17 -3.34,-38.4 -4.62,-57.49 -8.36,-127.59 -6.23,-255.31 -0.65,-383.07 4.68,-107.35 11.8,-214.67 17.21,-322.07 4.69,-92.16 8.05,-184.37 7.47,-276.61 -0.09,-12.47 -0.43,-25.33 -1.27,-38.31 -4.2,-61.32 -20.15,-123.89 -71.78,-152.84 -25.87,-14.56 -55.46,-16.93 -84.97,-12.08 -7.92,1.24 -15.76,3.03 -23.6,5.28 -17.21,4.98 -33.95,11.93 -49.47,19.97 -65.76,34.16 -119.84,84.78 -172.59,137.59 -39.41,39.44 -78.03,80.07 -120.21,116.06 -98.68,84.07 -243.88,142.56 -355.87,77.31 -139.61,-81.28 -128.92,-285.91 -79.93,-439.78 55.85,-175.63 136.93,-350.65 247.31,-491.1 75.96,-96.75 165.85,-177.07 270.98,-230.03 131.96,-66.42 287.84,-89.62 470.43,-47.68 75.51,17.34 141.15,47.62 198.2,87.98 92.44,65.02 162.65,156.06 216.65,260.16 104.78,202.31 148.33,454.09 173.58,660.97 2.52,20.17 4.75,40.4 6.88,60.54 11.75,111.06 18.99,222.64 25.69,334.22 10.41,172.42 19.6,344.79 42.53,515.33 8.67,63.69 19.13,127.07 32.27,190.14 5.35,25.54 98.02,234.33 155.69,456.87 81.49,314.37 127.36,665.14 55.47,643.35z"/>
  </g>
 </g>
</svg>
